<?xml version="1.0" encoding="utf-8"?>
<!-- Generator: Adobe Illustrator 28.1.0, SVG Export Plug-In . SVG Version: 6.00 Build 0)  -->
<svg version="1.1" id="Layer_1" xmlns="http://www.w3.org/2000/svg" xmlns:xlink="http://www.w3.org/1999/xlink" x="0px" y="0px"
	 viewBox="0 0 32 32" style="enable-background:new 0 0 32 32;" xml:space="preserve">
<style type="text/css">
	.st0{fill:none;stroke:#015573;stroke-width:3.5;stroke-miterlimit:10;}
	.st1{fill:none;stroke:#F17821;stroke-width:3.5;stroke-miterlimit:10;}
	.st2{fill:#015573;}
	.st3{fill:#F17821;}
</style>
<g>
	<polyline class="st0" points="15.2,32 0,32 0,0 23.4,0 32,0 	"/>
	<polyline class="st1" points="23.4,0 32,0 32,32 15.2,32 	"/>
	<g>
		<polygon class="st2" points="21,9 17.8,9 17.8,9.9 19.2,10.1 19.5,10.4 16.9,20.1 13.5,9 12.1,9 8.7,19.9 6.1,10.3 6.2,10 
			7.5,9.9 7.5,9 2.9,9 2.9,9.9 4.2,10.1 7.7,23 9.1,23 12.5,11.6 16,23 17.4,23 		"/>
		<polygon class="st3" points="27.4,21.9 22.4,9 21.7,11.9 23.5,16.8 20.5,16.8 20.2,17.8 23.9,17.8 25.4,21.7 25.2,22 24,22.1 
			24,23 28.7,23 28.7,22.1 		"/>
	</g>
</g>
</svg>
