<?xml version="1.0" encoding="UTF-8"?>
<svg id="Layer_1" data-name="Layer 1" xmlns="http://www.w3.org/2000/svg" viewBox="0 0 412.55 71.58">
  <defs>
    <style>
      .cls-1 {
        fill: #f17821;
      }

      .cls-1, .cls-2 {
        stroke-width: 0px;
      }

      .cls-2 {
        fill: #015573;
      }
    </style>
  </defs>
  <g>
    <polygon class="cls-2" points="69.82 11.96 69.82 9.39 56.58 9.39 56.58 11.96 60.87 12.71 61.56 13.61 53.8 43.66 43.31 9.39 38.8 9.39 28.51 42.97 20.21 13.36 20.75 12.46 24.78 11.96 24.78 9.39 10.42 9.39 10.42 11.96 14.45 12.83 25.22 52.39 29.51 52.39 40.15 17.34 50.98 52.39 55.36 52.39 65.53 12.83 69.82 11.96"/>
    <path class="cls-2" d="m88.09,25.4c-2.8-2.99-6.37-4.49-10.73-4.49s-7.96,1.49-10.72,4.47c-2.76,2.98-4.15,6.83-4.15,11.55s1.39,8.57,4.18,11.55c2.79,2.98,6.35,4.48,10.69,4.48s7.91-1.5,10.72-4.49,4.21-6.84,4.21-11.53-1.4-8.54-4.19-11.53Zm-4.26,21.2c-1.63,2.4-3.79,3.6-6.48,3.6s-4.79-1.21-6.42-3.62c-1.63-2.41-2.44-5.63-2.44-9.66s.81-7.25,2.43-9.66c1.62-2.41,3.76-3.61,6.43-3.61s4.82,1.21,6.46,3.63c1.64,2.42,2.46,5.63,2.46,9.64s-.81,7.27-2.44,9.67Z"/>
    <path class="cls-2" d="m119.98,48.73v-18.06c0-3.17-.74-5.59-2.22-7.26-1.48-1.67-3.62-2.5-6.42-2.5-1.19,0-2.57.29-4.13.86s-3.63,1.57-6.2,2.99v-3.5h-2.44l-7.45,2.29v2h4.57v23.19l-1.09,1.03-3.47.31v2.32h14.05v-2.32l-3.07-.31-1.1-1.03v-21.47c1.38-.71,2.66-1.24,3.85-1.58,1.19-.34,2.29-.52,3.32-.52,2.34,0,4,.5,4.99,1.5.99,1,1.49,2.7,1.49,5.1v16.96l-1.09,1.03-3.07.31v2.32h14.02v-2.32l-3.44-.31-1.09-1.03Z"/>
    <path class="cls-2" d="m150.03,48.73V5.23h-2.41l-7.82,2.29v2h4.91v12.05c-1.02-.23-2.01-.41-2.97-.53-.96-.12-1.87-.19-2.72-.19-4.9,0-8.88,1.58-11.94,4.74s-4.58,7.29-4.58,12.38c0,4.38,1.16,7.98,3.49,10.78,2.33,2.81,5.28,4.21,8.87,4.21,1.73,0,3.39-.31,4.98-.94,1.58-.63,3.21-1.61,4.88-2.94v3.32h9.48v-2.32l-3.07-.31-1.09-1.03Zm-5.32-2.03c-1.21.75-2.39,1.31-3.55,1.67s-2.3.55-3.43.55c-2.92,0-5.25-1.08-7-3.25s-2.61-5.1-2.61-8.79c0-3.96,1.01-7.16,3.02-9.58,2.01-2.42,4.66-3.63,7.93-3.63.73,0,1.56.09,2.49.27.93.18,1.98.43,3.15.77v22Z"/>
    <path class="cls-2" d="m179.69,45.6c-1.92,1.27-3.71,2.21-5.34,2.82-1.64.61-3.22.91-4.75.91-3.3,0-5.92-1.17-7.87-3.52-1.94-2.35-2.92-5.53-2.92-9.56v-.72h20.78c.04-.25.07-.51.08-.78,0-.27.02-.67.02-1.19,0-3.9-1.04-6.98-3.12-9.25s-4.89-3.4-8.44-3.4c-4.35,0-7.9,1.52-10.67,4.55-2.77,3.04-4.15,6.95-4.15,11.75s1.32,8.47,3.96,11.38c2.64,2.91,6.08,4.37,10.32,4.37,2.07,0,4.13-.32,6.17-.97s4.02-1.6,5.92-2.85v-3.54Zm-17.95-19.21c1.55-1.69,3.4-2.54,5.52-2.54s3.82.69,4.96,2.06c1.14,1.37,1.71,3.35,1.71,5.93v1h-14.8c.19-2.6,1.06-4.75,2.61-6.44Z"/>
    <path class="cls-2" d="m199.13,21.11c-.63-.14-1.26-.2-1.91-.2-.44,0-.77.01-.99.03-.22.02-.42.06-.61.12-1.25,1-2.45,2.02-3.58,3.05-1.14,1.03-2.23,2.08-3.27,3.15v-6.01h-2.44l-7.45,2.29v2h4.51v23.19l-1.1,1.03-3.41.31v2.32h15.46v-2.32l-4.47-.31-1.1-1.03v-18.31c1.36-1.61,2.6-2.79,3.74-3.55,1.14-.76,2.22-1.14,3.24-1.14.67,0,1.28.13,1.83.39s1.04.64,1.46,1.14h2.03v-5.51c-.67-.29-1.31-.51-1.94-.64Z"/>
  </g>
  <g>
    <path class="cls-1" d="m218.43,8.86h-4.22l-15.02,40.12-3.69.78v2.63h12.55v-2.63l-4.16-.31-.66-.91,4.57-12.24h15.12l4.63,12.24-.47.91-3.98.31v2.63h14.55v-2.63l-3.85-.78-15.37-40.12Zm-9.54,24.51l6.32-17.78,6.6,17.78h-12.93Z"/>
    <path class="cls-1" d="m261.37,48.73V5.23h-2.41l-7.82,2.29v2h4.91v12.05c-1.02-.23-2.01-.41-2.97-.53-.96-.12-1.87-.19-2.72-.19-4.9,0-8.88,1.58-11.94,4.74s-4.58,7.29-4.58,12.38c0,4.38,1.16,7.98,3.49,10.78,2.33,2.81,5.28,4.21,8.87,4.21,1.73,0,3.39-.31,4.98-.94,1.58-.63,3.21-1.61,4.88-2.94v3.32h9.48v-2.32l-3.07-.31-1.09-1.03Zm-5.32-2.03c-1.21.75-2.39,1.31-3.55,1.67s-2.3.55-3.43.55c-2.92,0-5.25-1.08-7-3.25s-2.61-5.1-2.61-8.79c0-3.96,1.01-7.16,3.02-9.58,2.01-2.42,4.66-3.63,7.93-3.63.73,0,1.56.09,2.49.27.93.18,1.98.43,3.15.77v22Z"/>
    <path class="cls-1" d="m298.36,14.4c1.04,0,1.92-.36,2.65-1.06.72-.71,1.08-1.58,1.08-2.6s-.36-1.9-1.08-2.63c-.72-.73-1.6-1.1-2.65-1.1s-1.89.36-2.61,1.08c-.72.72-1.08,1.6-1.08,2.64s.36,1.89,1.08,2.6c.72.71,1.59,1.06,2.61,1.06Z"/>
    <path class="cls-1" d="m321.55,37.84c-1.09-.9-2.84-1.9-5.26-3-.69-.31-1.2-.55-1.54-.72-2.13-1.02-3.57-1.95-4.32-2.79-.75-.83-1.13-1.85-1.13-3.04,0-1.46.47-2.6,1.41-3.41.94-.81,2.24-1.22,3.91-1.22.77,0,1.54.11,2.32.34.77.23,1.59.57,2.44,1.03l.5,4.54h3.16v-7.26c-1.09-.46-2.25-.81-3.49-1.05-1.24-.24-2.58-.36-4.02-.36-3.61,0-6.41.78-8.39,2.35-1.98,1.57-2.97,3.78-2.97,6.63,0,1.88.58,3.45,1.74,4.73s3.34,2.63,6.56,4.07c2.84,1.29,4.63,2.36,5.38,3.21.75.84,1.13,1.91,1.13,3.21,0,1.54-.55,2.79-1.64,3.74s-2.55,1.42-4.37,1.42c-.92,0-1.83-.12-2.74-.38-.91-.25-1.81-.64-2.71-1.16l-.78-5.45h-3.07v6.66l-1.97-.18-1.1-1.03v-27.48h-2.5l-3.35,1.04v-.73h-11.33v2.38l3.44.25.53,1.03-8.2,20.94-7.51-20.94.78-1.03,3.38-.25v-2.38h-13.9v2.38l3.91.38,10.3,28.07h3.6l10.98-27.32v.47h4.48v23.19l-1.1,1.03-3.38.31v2.32h14.4v-.31c.77.22,1.57.41,2.42.54,1.41.22,2.89.33,4.43.33,3.76,0,6.69-.85,8.81-2.55,2.12-1.7,3.18-4.05,3.18-7.06,0-1.15-.21-2.2-.62-3.15-.42-.95-1.02-1.74-1.81-2.36Z"/>
    <path class="cls-1" d="m349.15,25.4c-2.8-2.99-6.37-4.49-10.73-4.49s-7.96,1.49-10.72,4.47c-2.76,2.98-4.15,6.83-4.15,11.55s1.39,8.57,4.18,11.55c2.79,2.98,6.35,4.48,10.69,4.48s7.91-1.5,10.72-4.49c2.81-2.99,4.21-6.84,4.21-11.53s-1.4-8.54-4.19-11.53Zm-4.26,21.2c-1.63,2.4-3.79,3.6-6.48,3.6s-4.79-1.21-6.42-3.62c-1.63-2.41-2.44-5.63-2.44-9.66s.81-7.25,2.43-9.66c1.62-2.41,3.76-3.61,6.43-3.61s4.82,1.21,6.46,3.63c1.64,2.42,2.46,5.63,2.46,9.64s-.81,7.27-2.44,9.67Z"/>
    <path class="cls-1" d="m390.71,21.56v2.38l3.47.25.5,1.03-8.01,19.94-7.7-19.94.78-1.03,3.38-.25v-2.38h-9.25c-.49-.19-.98-.35-1.45-.45-.63-.14-1.26-.2-1.91-.2-.44,0-.77.01-.99.03-.22.02-.42.06-.61.12-1.25,1-2.45,2.02-3.58,3.05-1.14,1.03-2.23,2.08-3.27,3.15v-6.01h-2.44l-7.45,2.29v2h4.51v23.19l-1.1,1.03-3.41.31v2.32h15.46v-2.32l-4.48-.31-1.1-1.03v-18.31c1.36-1.61,2.6-2.79,3.74-3.55,1.14-.76,2.22-1.14,3.24-1.14.67,0,1.28.13,1.83.39.55.26,1.04.64,1.46,1.14h1.95l9.63,24.88c-.75,2.11-1.57,3.98-2.46,5.63-.89,1.65-1.8,2.97-2.74,3.97l-6.17-2.44c-.54.52-.95,1.07-1.24,1.66-.28.58-.42,1.19-.42,1.82,0,1.06.41,1.92,1.22,2.58.81.66,1.89.99,3.22.99,2,0,3.82-.85,5.45-2.55,1.63-1.7,3.22-4.44,4.79-8.22l12.83-31.14,3.72-.5v-2.38h-11.42Z"/>
  </g>
</svg>