<svg xmlns:dc="http://purl.org/dc/elements/1.1/"
     xmlns:cc="http://creativecommons.org/ns#"
     xmlns:rdf="http://www.w3.org/1999/02/22-rdf-syntax-ns#"
     xmlns:svg="http://www.w3.org/2000/svg"
     xmlns="http://www.w3.org/2000/svg"
     xmlns:sodipodi="http://sodipodi.sourceforge.net/DTD/sodipodi-0.dtd"
     xmlns:inkscape="http://www.inkscape.org/namespaces/inkscape"
     width="90" height="90"
     version="1.1"
     x="0px"
     y="0px">
  <g transform="translate(0,-952.3622)">
    <path style="color:#000000;font-style:normal;font-variant:normal;font-weight:normal;font-stretch:normal;font-size:medium;line-height:normal;font-family:sans-serif;text-indent:0;text-align:start;text-decoration:none;text-decoration-line:none;text-decoration-style:solid;text-decoration-color:#000000;letter-spacing:normal;word-spacing:normal;text-transform:none;direction:ltr;block-progression:tb;writing-mode:lr-tb;baseline-shift:baseline;text-anchor:start;white-space:normal;clip-rule:nonzero;display:inline;overflow:visible;visibility:visible;opacity:1;isolation:auto;mix-blend-mode:normal;color-interpolation:sRGB;color-interpolation-filters:linearRGB;solid-color:#000000;solid-opacity:1;fill:#000000;fill-opacity:1;fill-rule:nonzero;stroke:none;stroke-width:1.5;stroke-linecap:round;stroke-linejoin:round;stroke-miterlimit:4;stroke-dasharray:none;stroke-dashoffset:0;stroke-opacity:1;color-rendering:auto;image-rendering:auto;shape-rendering:auto;text-rendering:auto;enable-background:accumulate"
          d="m 20.9375,966.3622 a 1.1251125,1.1251125 0 0 0 -1.125,1.125 l 0,69.75 a 1.1251125,1.1251125 0 0 0 1.125,1.125 l 58.125,0 a 1.1251125,1.1251125 0 0 0 1.125,-1.125 l 0,-69.75 a 1.1251125,1.1251125 0 0 0 -1.125,-1.125 l -58.125,0 z m 1.125,2.25 55.875,0 0,67.5 -55.875,0 0,-67.5 z m 27.09082,4.06934 c -3.818154,0 -6.9375,3.1194 -6.9375,6.9375 0,1.10172 0.285809,2.12847 0.747071,3.05566 a 1.1251125,1.1251125 0 0 0 -0.228516,0.28711 l -2.90625,5.03319 a 1.1251125,1.1251125 0 0 0 0.410157,1.5381 l 5.036132,2.9062 a 1.1251125,1.1251125 0 0 0 1.535156,-0.413 l 2.742188,-4.7461 4.271484,6.9404 a 1.1251125,1.1251125 0 0 0 1.494141,0.3984 l 4.417968,-2.3935 a 1.1251125,1.1251125 0 0 0 0.421875,-1.5791 l -4.857422,-7.88674 c 0.488239,-0.94832 0.791016,-2.00493 0.791016,-3.14062 0,-3.8181 -3.119347,-6.9375 -6.9375,-6.9375 z m 0,2.25 c 2.602163,0 4.6875,2.0853 4.6875,4.6875 0,2.35325 -1.710131,4.26641 -3.960937,4.61425 a 1.1252835,1.1252835 0 0 0 -0.621094,0.0615 c 0,0 -0.0029,0 -0.0029,0 -0.03499,7.6e-4 -0.06736,0.0117 -0.102539,0.0117 -2.602164,0 -4.6875,-2.0853 -4.6875,-4.6875 0,-2.6022 2.085336,-4.6875 4.6875,-4.6875 z m -4.77832,9.68847 c 0.861037,0.82265 1.932829,1.41559 3.123046,1.71099 l -2.074218,3.5947 -3.084961,-1.7813 2.036133,-3.52439 z m 9.471679,0.0674 3.770508,6.12599 -2.4375,1.3213 -3.697266,-6.0118 c 0.885748,-0.31936 1.685888,-0.80711 2.364258,-1.43549 z M 26.75,998.5858 a 1.1251125,1.1251125 0 1 0 0,2.25 l 46.5,0 a 1.1251125,1.1251125 0 1 0 0,-2.25 l -46.5,0 z m 0,5.8125 a 1.1251125,1.1251125 0 1 0 0,2.25 l 46.5,0 a 1.1251125,1.1251125 0 1 0 0,-2.25 l -46.5,0 z m 0,5.8125 a 1.1251125,1.1251125 0 1 0 0,2.25 l 46.5,0 a 1.1251125,1.1251125 0 1 0 0,-2.25 l -46.5,0 z m 0,5.8125 a 1.1251125,1.1251125 0 1 0 0,2.25 l 46.5,0 a 1.1251125,1.1251125 0 1 0 0,-2.25 l -46.5,0 z m 0,5.8125 a 1.1251125,1.1251125 0 1 0 0,2.25 l 46.5,0 a 1.1251125,1.1251125 0 1 0 0,-2.25 l -46.5,0 z m 0,5.8125 a 1.1251125,1.1251125 0 1 0 0,2.25 l 23.25,0 a 1.1251125,1.1251125 0 1 0 0,-2.25 l -23.25,0 z"/>
  </g>
</svg>
