<svg xmlns="http://www.w3.org/2000/svg" xmlns:xlink="http://www.w3.org/1999/xlink" xmlns:serif="http://www.serif.com/" width="95" height="95" version="1.1" xml:space="preserve" style="" x="0px" y="0px" fill-rule="evenodd" clip-rule="evenodd" stroke-linejoin="round" stroke-miterlimit="2"><path d="M10.084,31.444L6.173,31.444C4.435,31.444 3.009,30.025 3.009,28.28L3.009,5.267C3.009,3.53 4.435,2.103 6.173,2.103L30.017,2.103C31.762,2.103 33.181,3.53 33.181,5.267L33.181,7.555L41.1,7.555C41.361,7.555 41.616,7.581 41.86,7.63C44.006,7.278 46.208,7.094 48.453,7.094C52.805,7.094 56.998,7.783 60.929,9.058C64.32,4.819 69.537,2.103 75.389,2.103C85.612,2.103 93.897,10.388 93.897,20.611C93.897,26.463 91.181,31.68 86.942,35.071C88.217,39.002 88.906,43.195 88.906,47.547C88.906,53.266 87.716,58.708 85.573,63.641L91.724,67.038C92.191,67.296 92.481,67.788 92.481,68.321L92.481,85.59C93.267,85.616 93.897,86.262 93.897,87.055L93.897,91.525C93.897,92.335 93.24,92.991 92.431,92.991L50.31,92.991C49.501,92.991 48.844,92.335 48.844,91.525L48.844,87.999C48.714,88 48.583,88 48.453,88C44.145,88 39.994,87.325 36.099,86.076L32.975,89.2C32.546,89.628 31.898,89.749 31.344,89.504C31.344,89.504 29.262,88.581 29.262,88.581C28.232,89.149 27.141,89.6 26.011,89.928L25.193,92.052C24.976,92.618 24.432,92.991 23.825,92.991L19.214,92.991C18.608,92.991 18.064,92.618 17.846,92.052C17.846,92.052 17.028,89.928 17.029,89.928C15.896,89.6 14.807,89.146 13.775,88.58L11.69,89.504C11.136,89.749 10.488,89.628 10.06,89.2L6.8,85.94C6.371,85.511 6.251,84.862 6.497,84.308C6.497,84.308 7.423,82.226 7.423,82.226C6.855,81.197 6.404,80.107 6.074,78.977L3.948,78.159C3.382,77.941 3.009,77.397 3.009,76.791L3.009,72.179C3.009,71.573 3.382,71.029 3.948,70.811C3.948,70.811 6.074,69.993 6.074,69.993C6.404,68.861 6.855,67.772 7.423,66.74L6.497,64.658C6.251,64.103 6.371,63.454 6.8,63.025L9.924,59.901C8.675,56.006 8,51.855 8,47.547C8,42.35 8.982,37.381 10.771,32.814C10.474,32.401 10.241,31.94 10.084,31.444ZM30.25,28.513L30.25,5.267C30.25,5.14 30.145,5.035 30.017,5.035L6.173,5.035C6.045,5.035 5.94,5.14 5.94,5.267L5.94,28.28C5.94,28.408 6.045,28.513 6.173,28.513L10.084,28.513C10.705,26.543 12.546,25.116 14.722,25.116C15.117,25.116 15.501,25.163 15.868,25.252C17.525,25.653 18.851,26.901 19.36,28.513L30.25,28.513ZM44.656,10.216L47.8,17.619C47.802,17.622 47.803,17.625 47.804,17.628C47.98,18.049 48.061,18.436 48.061,18.892L48.061,28.704C48.061,30.216 46.824,31.444 45.32,31.444L43.791,31.444C43.17,33.414 41.329,34.841 39.153,34.841C36.982,34.841 35.138,33.414 34.516,31.444L19.36,31.444C18.738,33.414 16.898,34.841 14.722,34.841C14.2,34.841 13.697,34.759 13.226,34.607C11.742,38.641 10.931,43 10.931,47.547C10.931,51.941 11.688,56.159 13.078,60.079C13.462,60.249 13.775,60.389 13.775,60.389C14.806,59.821 15.895,59.37 17.024,59.042L17.846,56.912C18.065,56.347 18.608,55.974 19.214,55.974L23.825,55.974C24.432,55.974 24.976,56.348 25.194,56.914L26.011,59.042C27.14,59.37 28.229,59.821 29.26,60.388L31.342,59.462C31.897,59.216 32.546,59.336 32.975,59.765L36.235,63.025C36.663,63.454 36.784,64.102 36.538,64.656C36.538,64.656 35.616,66.739 35.615,66.739C36.184,67.771 36.635,68.861 36.963,69.994L39.087,70.811C39.653,71.029 40.026,71.573 40.026,72.179L40.026,76.791C40.026,77.397 39.653,77.941 39.087,78.159C39.087,78.159 36.962,78.976 36.962,78.976C36.634,80.105 36.181,81.194 35.615,82.225L35.924,82.923C39.843,84.312 44.06,85.069 48.453,85.069C49.059,85.069 49.661,85.054 50.26,85.026L50.26,68.321C50.26,67.512 50.917,66.855 51.726,66.855C51.726,66.855 52.479,66.855 53.645,66.855L54.168,62.509C53.866,62.24 53.676,61.849 53.676,61.414L53.676,57.854C53.676,57.045 54.333,56.388 55.142,56.388L57.578,56.388C57.578,55.571 57.578,54.717 57.578,54.717C56.552,54.089 55.848,53.056 55.678,51.894C54.394,51.423 53.513,50.241 53.513,48.916C53.513,47.339 54.761,45.964 56.452,45.75C57.061,44.5 58.396,43.674 59.852,43.674C60.758,43.674 61.584,43.982 62.227,44.488C62.865,44.351 63.536,44.391 64.151,44.603C64.973,43.933 66.044,43.522 67.221,43.522C68.988,43.522 70.511,44.445 71.321,45.791C71.333,45.791 71.345,45.791 71.356,45.791C73.263,45.791 74.758,47.284 74.758,49.062C74.758,50.163 74.184,51.156 73.293,51.751C73.366,52.046 73.405,52.353 73.405,52.669C73.405,54.828 71.577,56.632 69.261,56.632C68.1,56.632 67.058,56.175 66.311,55.45C65.505,55.745 64.619,55.793 63.789,55.606L63.789,56.388L64.554,56.388C65.364,56.388 66.02,57.045 66.02,57.854L66.02,61.414C66.02,61.849 65.83,62.24 65.529,62.509L66.052,66.855C66.342,66.855 66.504,66.855 66.504,66.855L66.504,61.958C66.504,61.44 66.778,60.96 67.225,60.696C67.672,60.432 68.225,60.424 68.679,60.675L78.027,65.837L78.027,61.958C78.027,61.44 78.301,60.96 78.747,60.696C79.194,60.432 79.747,60.424 80.201,60.675L82.994,62.217C84.912,57.71 85.974,52.752 85.974,47.547C85.974,43.805 85.425,40.19 84.403,36.779C81.736,38.269 78.662,39.118 75.389,39.118C65.167,39.118 56.882,30.833 56.882,20.611C56.882,17.338 57.731,14.264 59.221,11.597C55.81,10.575 52.195,10.026 48.453,10.026C47.171,10.026 45.904,10.09 44.656,10.216ZM43.791,28.513L45.129,28.513L45.129,18.892C45.129,18.844 45.118,18.803 45.099,18.759L41.733,10.834L41.732,10.833C41.667,10.679 41.529,10.576 41.368,10.526C41.284,10.5 41.194,10.487 41.1,10.487L33.181,10.487L33.181,28.513L34.516,28.513C35.138,26.543 36.982,25.116 39.153,25.116C41.329,25.116 43.17,26.543 43.791,28.513ZM89.549,85.589L89.549,69.186L80.958,64.443L80.958,68.321C80.958,68.84 80.684,69.32 80.238,69.584C79.791,69.847 79.238,69.855 78.784,69.605L69.436,64.443L69.436,68.321C69.436,69.131 68.78,69.787 67.97,69.787C67.97,69.787 66.636,69.787 64.769,69.787C64.756,69.787 64.744,69.787 64.731,69.787C61.729,69.787 57.376,69.787 54.966,69.787C54.953,69.787 54.94,69.787 54.927,69.787C53.867,69.787 53.192,69.787 53.192,69.787L53.192,85.589L54.095,85.589L54.095,77.879C54.095,76.475 55.244,75.326 56.648,75.326L63.048,75.326C64.453,75.326 65.602,76.475 65.602,77.879L65.602,85.589L89.549,85.589ZM90.965,90.06L90.965,88.521L59.848,88.521L51.776,88.521L51.776,90.06L90.965,90.06ZM61.314,85.589L62.67,85.589L62.67,78.258L61.314,78.258L61.314,85.589ZM57.027,85.589L58.382,85.589L58.382,78.258L57.027,78.258L57.027,85.589ZM13.442,31.425C13.783,31.726 14.231,31.909 14.722,31.909C15.789,31.909 16.652,31.045 16.652,29.979C16.652,29.069 16.026,28.307 15.179,28.102C15.033,28.067 14.879,28.048 14.722,28.048C13.655,28.048 12.791,28.912 12.791,29.979C12.791,30.554 13.043,31.071 13.442,31.425ZM57.076,62.88L56.598,66.855C58.726,66.855 61.17,66.855 63.099,66.855L62.62,62.88L57.076,62.88ZM63.088,59.32L56.608,59.32L56.608,59.948L63.088,59.948L63.088,59.32ZM60.857,56.388L60.857,52.85C60.857,52.176 61.316,51.589 61.971,51.427C62.625,51.266 63.306,51.571 63.62,52.168C64.021,52.93 65.108,53.029 65.715,52.442C66.069,52.099 66.573,51.958 67.055,52.066C67.536,52.174 67.931,52.517 68.105,52.979C68.27,53.416 68.736,53.7 69.261,53.7C69.903,53.7 70.473,53.268 70.473,52.669C70.473,52.384 70.335,52.133 70.129,51.952C69.645,51.527 69.495,50.836 69.759,50.249C70.023,49.662 70.64,49.316 71.279,49.396C71.304,49.399 71.33,49.401 71.356,49.401C71.59,49.401 71.826,49.28 71.826,49.062C71.826,48.844 71.59,48.723 71.356,48.723C71.262,48.723 71.172,48.744 71.094,48.783C70.684,48.994 70.199,48.999 69.785,48.797C69.371,48.596 69.075,48.211 68.987,47.759C68.837,46.993 68.086,46.454 67.221,46.454C66.562,46.454 65.976,46.766 65.659,47.257C65.417,47.633 65.016,47.878 64.57,47.922C64.125,47.966 63.684,47.804 63.373,47.482C63.191,47.294 62.885,47.278 62.671,47.426C62.339,47.655 61.927,47.737 61.532,47.653C61.138,47.569 60.795,47.325 60.586,46.981C60.443,46.746 60.163,46.605 59.852,46.605C59.449,46.605 59.032,46.854 59.037,47.273C59.043,47.745 58.821,48.191 58.441,48.471C58.061,48.751 57.569,48.83 57.12,48.685C57.055,48.664 56.986,48.653 56.913,48.653C56.692,48.653 56.445,48.718 56.445,48.916C56.445,49.113 56.692,49.178 56.913,49.178C56.946,49.178 56.979,49.176 57.01,49.172C57.509,49.1 58.009,49.29 58.335,49.674C58.66,50.057 58.767,50.581 58.616,51.062C58.432,51.648 58.861,52.197 59.441,52.36C60.073,52.538 60.51,53.115 60.51,53.771L60.51,56.388L60.857,56.388ZM42.763,19.099L35.205,19.099C34.395,19.099 33.739,18.442 33.739,17.633L33.739,12.258C33.739,11.449 34.395,10.792 35.205,10.792L40.478,10.792C41.066,10.792 41.597,11.144 41.827,11.685L44.112,17.059C44.305,17.512 44.257,18.031 43.986,18.441C43.715,18.852 43.255,19.099 42.763,19.099ZM40.547,16.167C40.547,16.167 39.509,13.724 39.509,13.724C39.509,13.724 36.671,13.724 36.671,13.724L36.671,16.167L40.547,16.167ZM76.576,70.261C77.285,70.652 77.542,71.545 77.151,72.253C76.76,72.961 75.867,73.219 75.159,72.827L70.886,70.468C70.178,70.077 69.921,69.184 70.312,68.476C70.703,67.768 71.595,67.51 72.304,67.901L76.576,70.261ZM88.099,70.261C88.807,70.652 89.065,71.545 88.673,72.253C88.282,72.961 87.39,73.219 86.681,72.827L82.409,70.468C81.7,70.077 81.443,69.184 81.834,68.476C82.225,67.768 83.118,67.51 83.826,67.901L88.099,70.261ZM88.499,75.847L88.499,79.406C88.499,80.216 87.843,80.872 87.033,80.872L83.474,80.872C82.664,80.872 82.008,80.216 82.008,79.406L82.008,75.847C82.008,75.037 82.664,74.381 83.474,74.381L87.033,74.381C87.843,74.381 88.499,75.037 88.499,75.847ZM85.567,77.313L84.94,77.313L84.94,77.94L85.567,77.94L85.567,77.313ZM76.977,75.847L76.977,79.406C76.977,80.216 76.321,80.872 75.511,80.872L71.952,80.872C71.142,80.872 70.486,80.216 70.486,79.406L70.486,75.847C70.486,75.037 71.142,74.381 71.952,74.381L75.511,74.381C76.321,74.381 76.977,75.037 76.977,75.847ZM74.045,77.313L73.418,77.313L73.418,77.94L74.045,77.94L74.045,77.313ZM23.544,60.794L22.818,58.906C22.818,58.906 20.22,58.906 20.22,58.906L19.49,60.796C19.316,61.246 18.932,61.582 18.462,61.694C17.109,62.016 15.819,62.55 14.633,63.281C14.221,63.534 13.711,63.569 13.269,63.372C13.269,63.372 11.421,62.551 11.421,62.551L9.585,64.386L10.407,66.234C10.603,66.676 10.569,67.187 10.315,67.599C9.584,68.785 9.049,70.077 8.723,71.435C8.611,71.904 8.275,72.288 7.824,72.461C7.824,72.461 5.94,73.186 5.94,73.186L5.94,75.784L7.824,76.509C8.274,76.682 8.61,77.066 8.723,77.534C9.049,78.888 9.583,80.183 10.314,81.365C10.569,81.777 10.604,82.288 10.407,82.731L9.585,84.579C9.585,84.579 11.422,86.416 11.422,86.416L13.271,85.597C13.711,85.402 14.219,85.436 14.63,85.687C15.817,86.414 17.107,86.954 18.465,87.276C18.936,87.387 19.322,87.724 19.495,88.176C19.495,88.176 20.221,90.06 20.221,90.06L22.819,90.06L23.544,88.176C23.718,87.724 24.103,87.388 24.573,87.276C25.925,86.955 27.219,86.421 28.399,85.691C28.811,85.436 29.322,85.401 29.764,85.597C29.764,85.597 31.612,86.416 31.612,86.416C31.612,86.416 33.45,84.578 33.45,84.578L32.632,82.729C32.437,82.289 32.47,81.781 32.722,81.37C33.449,80.183 33.989,78.892 34.31,77.538C34.422,77.068 34.759,76.683 35.21,76.509C35.21,76.509 37.094,75.784 37.094,75.784L37.094,73.186L35.21,72.461C34.759,72.287 34.422,71.902 34.31,71.431C33.989,70.074 33.455,68.784 32.724,67.599C32.471,67.187 32.436,66.678 32.632,66.236L33.45,64.388L31.614,62.551L29.766,63.372C29.324,63.569 28.813,63.534 28.401,63.281C27.216,62.55 25.926,62.016 24.573,61.694C24.102,61.582 23.717,61.245 23.544,60.794ZM21.517,64.974C26.771,64.974 31.031,69.229 31.031,74.483C31.031,79.736 26.771,83.996 21.517,83.996C16.263,83.996 12.008,79.737 12.008,74.483C12.008,69.229 16.263,64.974 21.517,64.974ZM21.517,67.906C17.883,67.906 14.94,70.849 14.94,74.483C14.94,78.117 17.883,81.064 21.517,81.064C25.152,81.064 28.099,78.117 28.099,74.483C28.099,70.848 25.152,67.906 21.517,67.906ZM39.153,28.048C38.089,28.048 37.223,28.912 37.223,29.979C37.223,31.045 38.089,31.909 39.153,31.909C40.22,31.909 41.084,31.045 41.084,29.979C41.084,28.912 40.22,28.048 39.153,28.048ZM88.006,29.746C89.868,27.18 90.965,24.024 90.965,20.611C90.965,12.008 83.992,5.035 75.389,5.035C66.786,5.035 59.814,12.008 59.814,20.611C59.814,24.024 60.911,27.18 62.772,29.746C64.039,26.122 66.822,23.209 70.36,21.769C68.854,20.398 67.905,18.424 67.905,16.238C67.905,12.12 71.272,8.753 75.389,8.753C79.507,8.753 82.874,12.12 82.874,16.238C82.874,18.424 81.925,20.398 80.418,21.769C83.956,23.209 86.74,26.122 88.006,29.746ZM65.119,32.322C67.861,34.728 71.455,36.186 75.389,36.186C79.324,36.186 82.918,34.728 85.659,32.322C84.793,27.434 80.523,23.722 75.389,23.722C70.256,23.722 65.986,27.434 65.119,32.322ZM75.389,20.79C77.894,20.79 79.942,18.742 79.942,16.238C79.942,13.733 77.894,11.685 75.389,11.685C72.885,11.685 70.837,13.733 70.837,16.238C70.837,18.742 72.885,20.79 75.389,20.79Z"/></svg>