<?xml version="1.0" encoding="utf-8"?>
<!-- Generator: Adobe Illustrator 28.1.0, SVG Export Plug-In . SVG Version: 6.00 Build 0)  -->
<svg version="1.1" id="Layer_1" xmlns="http://www.w3.org/2000/svg" xmlns:xlink="http://www.w3.org/1999/xlink" x="0px" y="0px"
	 viewBox="0 0 54 54" style="enable-background:new 0 0 54 54;" xml:space="preserve">
<style type="text/css">
	.st0{fill:#015573;}
	.st1{fill:#F17821;}
	.st2{fill:#FFFFFF;stroke:#FFFFFF;stroke-width:0.5;stroke-miterlimit:10;}
	.st3{fill:#FFFFFF;}
</style>
<g>
	<rect y="0" class="st0" width="54" height="54"/>
	<polygon class="st1" points="28,54 41.8,0 54,0 54,54 	"/>
	<g>
		<polygon class="st2" points="35.5,15.2 30.1,15.2 30.1,16.6 32.5,17.1 32.8,17.6 28.6,34 22.9,15.2 20.4,15.2 14.8,33.6 
			10.2,17.4 10.5,16.9 12.7,16.6 12.7,15.2 4.9,15.2 4.9,16.6 7.1,17.1 13,38.8 15.3,38.8 21.1,19.6 27,38.8 29.4,38.8 		"/>
		<g>
			<polygon class="st2" points="40.8,38.4 40.8,37.7 42.8,37.5 43.3,36.7 40.6,29.6 34.6,29.6 34.8,28.7 40.3,28.7 37,20 38,16.5 
				46,37.2 48,37.6 48,38.4 			"/>
			<path class="st3" d="M38,17.7c2.1,5.5,7.5,19.3,7.6,19.5l0.1,0.4l0.4,0.1l1.5,0.3l0,0h-6.4l1.4-0.1H43l0.2-0.4l0.3-0.5l0.2-0.3
				l-0.1-0.3L41,29.7l-0.2-0.5h-0.5H35v-0.1h4.6h1.1l-0.4-1l-3-8.1L38,17.7 M37.9,15.2L37.9,15.2L36.7,20l3.1,8.3h-5.2L34.1,30h6.2
				l2.5,6.7l-0.3,0.5l-2.2,0.2v1.4h8v-1.4L46.2,37C46.3,36.9,37.9,15.2,37.9,15.2L37.9,15.2z"/>
		</g>
	</g>
</g>
</svg>
