<?xml version="1.0" encoding="utf-8"?>
<!-- Generator: Adobe Illustrator 28.1.0, SVG Export Plug-In . SVG Version: 6.00 Build 0)  -->
<svg version="1.1" id="Layer_1" xmlns="http://www.w3.org/2000/svg" xmlns:xlink="http://www.w3.org/1999/xlink" x="0px" y="0px"
	 viewBox="0 0 200 200" style="enable-background:new 0 0 200 200;" xml:space="preserve">
<style type="text/css">
	.st0{fill:#015573;}
	.st1{fill:#F17821;}
	.st2{fill:#FFFFFF;stroke:#FFFFFF;stroke-width:0.5;stroke-miterlimit:10;}
	.st3{fill:#FFFFFF;}
</style>
<g>
	<rect y="0" class="st0" width="200" height="200"/>
	<polygon class="st1" points="103.7,200 154.8,0 200,0 200,200 	"/>
	<g>
		<polygon class="st2" points="131.5,56.3 111.5,56.3 111.5,61.5 120.4,63.3 121.5,65.2 105.9,125.9 84.8,56.3 75.6,56.3 
			54.8,124.4 37.8,64.4 38.9,62.6 47,61.5 47,56.3 18.1,56.3 18.1,61.5 26.3,63.3 48.1,143.7 56.7,143.7 78.1,72.6 100,143.7 
			108.9,143.7 		"/>
		<g>
			<polygon class="st2" points="151.1,142.2 151.1,139.6 158.5,138.9 160.4,135.9 150.4,109.6 128.1,109.6 128.9,106.3 149.3,106.3 
				137,74.1 140.7,61.1 170.4,137.8 177.8,139.3 177.8,142.2 			"/>
			<path class="st3" d="M140.7,65.6c7.8,20.4,27.8,71.5,28.1,72.2l0.4,1.5l1.5,0.4l5.6,1.1l0,0h-23.7l5.2-0.4h1.5l0.7-1.5l1.1-1.9
				l0.7-1.1l-0.4-1.1l-9.6-24.8l-0.7-1.9h-1.9h-19.6v-0.4h17h4.1l-1.5-3.7l-11.1-30L140.7,65.6 M140.4,56.3L140.4,56.3l-4.4,17.8
				l11.5,30.7h-19.3l-1.9,6.3h23l9.3,24.8l-1.1,1.9l-8.1,0.7v5.2h29.6v-5.2l-7.8-1.5C171.5,136.7,140.4,56.3,140.4,56.3L140.4,56.3z
				"/>
		</g>
	</g>
</g>
</svg>
